<svg width="150" height="150" viewBox="0 0 150 150" fill="none" xmlns="http://www.w3.org/2000/svg">
<rect width="150" height="150" fill="#02A352"/>
<mask id="mask0_20_35" style="mask-type:luminance" maskUnits="userSpaceOnUse" x="16" y="16" width="118" height="118">
<path d="M106.25 18.75H43.75C37.1196 18.75 30.7607 21.3839 26.0723 26.0723C21.3839 30.7607 18.75 37.1196 18.75 43.75V106.25C18.75 112.88 21.3839 119.239 26.0723 123.928C30.7607 128.616 37.1196 131.25 43.75 131.25H106.25C112.88 131.25 119.239 128.616 123.928 123.928C128.616 119.239 131.25 112.88 131.25 106.25V43.75C131.25 37.1196 128.616 30.7607 123.928 26.0723C119.239 21.3839 112.88 18.75 106.25 18.75Z" fill="white" stroke="white" stroke-width="4" stroke-linejoin="round"/>
<path d="M75 100C81.6304 100 87.9893 97.3661 92.6777 92.6777C97.3661 87.9893 100 81.6304 100 75C100 68.3696 97.3661 62.0107 92.6777 57.3223C87.9893 52.6339 81.6304 50 75 50C68.3696 50 62.0107 52.6339 57.3223 57.3223C52.6339 62.0107 50 68.3696 50 75C50 81.6304 52.6339 87.9893 57.3223 92.6777C62.0107 97.3661 68.3696 100 75 100Z" fill="black" stroke="black" stroke-width="4" stroke-linejoin="round"/>
<path d="M109.375 46.875C111.033 46.875 112.622 46.2165 113.794 45.0444C114.967 43.8723 115.625 42.2826 115.625 40.625C115.625 38.9674 114.967 37.3777 113.794 36.2056C112.622 35.0335 111.033 34.375 109.375 34.375C107.717 34.375 106.128 35.0335 104.956 36.2056C103.783 37.3777 103.125 38.9674 103.125 40.625C103.125 42.2826 103.783 43.8723 104.956 45.0444C106.128 46.2165 107.717 46.875 109.375 46.875Z" fill="black"/>
</mask>
<g mask="url(#mask0_20_35)">
<path d="M0 0H150V150H0V0Z" fill="white"/>
</g>
</svg>
