<svg width="18" height="18" viewBox="0 0 18 18" fill="none" xmlns="http://www.w3.org/2000/svg">
<path d="M13.7812 0H4.21875C1.8888 0 0 1.8888 0 4.21875V13.7812C0 16.1112 1.8888 18 4.21875 18H13.7812C16.1112 18 18 16.1112 18 13.7812V4.21875C18 1.8888 16.1112 0 13.7812 0Z" fill="#02A352"/>
<path d="M13.7812 0H4.21875C1.8888 0 0 1.8888 0 4.21875V13.7812C0 16.1112 1.8888 18 4.21875 18H13.7812C16.1112 18 18 16.1112 18 13.7812V4.21875C18 1.8888 16.1112 0 13.7812 0Z" fill="white"/>
<path d="M12.9878 15.306H15.0458C15.1204 15.306 15.1919 15.2764 15.2447 15.2236C15.2974 15.1709 15.3271 15.0994 15.3271 15.0248L15.3281 10.6765C15.3281 8.40382 14.8384 6.65691 12.1825 6.65691C11.1729 6.61936 10.2208 7.13981 9.70699 8.00887C9.70448 8.0131 9.70066 8.01638 9.6961 8.01822C9.69155 8.02007 9.68652 8.02037 9.68178 8.01909C9.67704 8.01781 9.67285 8.01501 9.66984 8.01112C9.66684 8.00723 9.6652 8.00247 9.66516 7.99755V7.14797C9.66516 7.07338 9.63552 7.00184 9.58278 6.94909C9.53004 6.89635 9.4585 6.86672 9.38391 6.86672H7.43084C7.35624 6.86672 7.28471 6.89635 7.23196 6.94909C7.17922 7.00184 7.14959 7.07338 7.14959 7.14797V15.0244C7.14959 15.099 7.17922 15.1705 7.23196 15.2232C7.28471 15.276 7.35624 15.3056 7.43084 15.3056H9.48874C9.56333 15.3056 9.63487 15.276 9.68762 15.2232C9.74036 15.1705 9.76999 15.099 9.76999 15.0244V11.131C9.76999 10.0301 9.97882 8.96393 11.3437 8.96393C12.6891 8.96393 12.7065 10.2236 12.7065 11.2023V15.0247C12.7065 15.0993 12.7362 15.1709 12.7889 15.2236C12.8416 15.2763 12.9132 15.306 12.9878 15.306ZM2.67188 4.19259C2.67188 5.02678 3.35862 5.71317 4.19288 5.71317C5.02692 5.7131 5.71324 5.02629 5.71324 4.19224C5.7131 3.3582 5.02671 2.67188 4.19259 2.67188C3.35827 2.67188 2.67188 3.35841 2.67188 4.19259ZM3.16118 15.306H5.22183C5.29642 15.306 5.36796 15.2763 5.4207 15.2236C5.47345 15.1709 5.50308 15.0993 5.50308 15.0247V7.14797C5.50308 7.07338 5.47345 7.00184 5.4207 6.94909C5.36796 6.89635 5.29642 6.86672 5.22183 6.86672H3.16118C3.08659 6.86672 3.01505 6.89635 2.96231 6.94909C2.90956 7.00184 2.87993 7.07338 2.87993 7.14797V15.0247C2.87993 15.0993 2.90956 15.1709 2.96231 15.2236C3.01505 15.2763 3.08659 15.306 3.16118 15.306Z" fill="#02A352"/>
</svg>
