<svg width="18" height="18" viewBox="0 0 18 18" fill="none" xmlns="http://www.w3.org/2000/svg">
<path d="M13.7812 0H4.21875C1.8888 0 0 1.8888 0 4.21875V13.7812C0 16.1112 1.8888 18 4.21875 18H13.7812C16.1112 18 18 16.1112 18 13.7812V4.21875C18 1.8888 16.1112 0 13.7812 0Z" fill="#02A352"/>
<path d="M13.7812 0H4.21875C1.8888 0 0 1.8888 0 4.21875V13.7812C0 16.1112 1.8888 18 4.21875 18H13.7812C16.1112 18 18 16.1112 18 13.7812V4.21875C18 1.8888 16.1112 0 13.7812 0Z" fill="white"/>
<path d="M14.0324 6.42733C14.0401 6.53892 14.0401 6.6505 14.0401 6.76314C14.0401 10.1942 11.4282 14.1512 6.65205 14.1512V14.1491C5.24111 14.1512 3.85938 13.7471 2.67188 12.9851C2.87714 13.0097 3.08316 13.0222 3.28992 13.0226C4.45936 13.0235 5.59517 12.6313 6.5148 11.9089C5.97297 11.8986 5.44789 11.7193 5.01295 11.396C4.57802 11.0727 4.25497 10.6216 4.08895 10.1057C4.47797 10.1808 4.87903 10.1655 5.2612 10.061C4.04986 9.81625 3.17834 8.75193 3.17834 7.51584V7.48293C3.53945 7.68408 3.9436 7.79554 4.35677 7.80792C3.21588 7.04538 2.86418 5.52754 3.5531 4.34081C4.20495 5.14305 5.01829 5.79917 5.94027 6.26654C6.86226 6.73391 7.87226 7.00208 8.90466 7.05361C8.80172 6.61052 8.81693 6.14818 8.94875 5.71282C9.08056 5.27746 9.32438 4.88434 9.6558 4.57277C10.7016 3.58966 12.3465 3.64007 13.3296 4.68534C13.911 4.57054 14.4687 4.35737 14.9785 4.05499C14.7846 4.65621 14.379 5.16654 13.837 5.49105C14.3517 5.43035 14.8544 5.29257 15.3281 5.08232C14.9797 5.6042 14.5409 6.05964 14.0324 6.42733Z" fill="#02A352"/>
</svg>
